<?xml version="1.0" encoding="utf-8"?>
<!-- Generator: Adobe Illustrator 23.0.0, SVG Export Plug-In . SVG Version: 6.00 Build 0)  -->
<svg version="1.1" id="Camada_1" xmlns="http://www.w3.org/2000/svg" xmlns:xlink="http://www.w3.org/1999/xlink" x="0px" y="0px"
	 viewBox="0 0 769 203" style="enable-background:new 0 0 769 203;" xml:space="preserve">
<style type="text/css">
	.st0{fill:#001560;}
</style>
<g>
	<path class="st0" d="M193.06,59.73c29.92,0,44.88,16.8,44.88,50.41v64.02h-32.75l-1.06-8.51c-10.07,6.8-21.55,10.21-34.45,10.21
		c-11.06,0-19.89-2.84-26.48-8.51c-6.59-5.67-9.89-13.4-9.89-23.18c0-11.34,5.39-20.21,16.16-26.59
		c10.77-6.38,25.66-9.57,44.66-9.57c4.11,0,6.66,0.07,7.66,0.21c-0.14-7.09-1.56-12.16-4.25-15.21c-2.69-3.05-7.02-4.57-12.97-4.57
		c-10.07,0-22.12,2.48-36.16,7.44l-11.06-24.25C156.91,63.7,175.48,59.73,193.06,59.73z M167.75,142.46c0,2.41,1.1,4.36,3.3,5.85
		c2.2,1.49,5.28,2.23,9.25,2.23c8.08,0,15.24-2.05,21.48-6.17v-13.82h-5.96C177.11,130.55,167.75,134.52,167.75,142.46z"/>
	<path class="st0" d="M296,175.85c-5.96,0-11.2-0.82-15.74-2.45c-4.54-1.63-8.05-3.69-10.53-6.17c-2.48-2.48-4.54-5.39-6.17-8.72
		c-1.63-3.33-2.69-6.41-3.19-9.25c-0.5-2.83-0.75-5.74-0.75-8.72V16.13h36.16V134.8c0,6.24,3.12,9.36,9.36,9.36
		c1.28,0,3.75-0.14,7.44-0.43l2.13,30.41C309.32,175.28,303.08,175.85,296,175.85z"/>
	<path class="st0" d="M365.97,175.85c-5.96,0-11.2-0.82-15.74-2.45c-4.54-1.63-8.05-3.69-10.53-6.17c-2.48-2.48-4.54-5.39-6.17-8.72
		c-1.63-3.33-2.69-6.41-3.19-9.25c-0.5-2.83-0.75-5.74-0.75-8.72V16.13h36.16V134.8c0,6.24,3.12,9.36,9.36,9.36
		c1.28,0,3.75-0.14,7.44-0.43l2.13,30.41C379.29,175.28,373.06,175.85,365.97,175.85z"/>
	<path class="st0" d="M503.14,122.47v9.14h-75.5c3.83,11.2,12.34,16.8,25.52,16.8c10.07,0,21.34-2.69,33.82-8.08l11.06,24.46
		c-16.02,7.38-32.33,11.06-48.92,11.06c-17.3,0-31.34-5.39-42.11-16.16c-10.78-10.77-16.16-24.74-16.16-41.9
		c0-17.15,5.39-31.12,16.16-41.9c10.77-10.77,24.74-16.16,41.9-16.16c17.44,0,30.84,5.74,40.2,17.23
		C498.46,88.44,503.14,103.61,503.14,122.47z M448.91,86.74c-6.1,0-11.1,1.95-14.99,5.85c-3.9,3.9-6.42,9.32-7.55,16.27h43.81
		C468.19,94.11,461.1,86.74,448.91,86.74z"/>
	<path class="st0" d="M568.22,175.85c-18.43,0-36.09-4.61-52.96-13.82l11.48-25.52c16.87,7.8,31.33,11.7,43.39,11.7
		c7.51,0,11.27-1.98,11.27-5.96c0-2.13-1.35-4-4.04-5.64c-2.69-1.63-7.94-3.51-15.74-5.64c-12.9-3.97-22.83-8.15-29.77-12.55
		c-8.79-5.96-13.19-14.32-13.19-25.1c0-9.07,3.9-16.87,11.7-23.39c7.8-6.81,19.14-10.21,34.03-10.21c15.03,0,31.97,3.97,50.83,11.91
		l-11.27,25.52c-17.87-6.66-31.41-10-40.62-10c-7.09,0-10.63,1.99-10.63,5.96c0,1.84,1.28,3.55,3.83,5.1
		c2.55,1.56,7.51,3.4,14.89,5.53c8.08,2.55,13.82,4.54,17.23,5.95c4.25,1.7,8.72,4.04,13.4,7.02c8.93,5.53,13.4,13.75,13.4,24.67
		c0,9.36-4.18,17.44-12.55,24.25C594.52,172.45,582.97,175.85,568.22,175.85z"/>
	<path class="st0" d="M672.01,154.16c0,6.52-1.99,11.77-5.96,15.74c-3.97,3.97-9.14,5.96-15.53,5.96c-6.38,0-11.56-1.98-15.53-5.96
		c-3.97-3.97-5.96-9.22-5.96-15.74c0-6.52,1.98-11.7,5.96-15.53c3.97-3.97,9.15-5.95,15.53-5.95c6.38,0,11.55,1.99,15.53,5.95
		C670.02,142.46,672.01,147.64,672.01,154.16z"/>
</g>
<g>
</g>
<g>
</g>
<g>
</g>
<g>
</g>
<g>
</g>
<g>
</g>
<g>
</g>
<g>
</g>
<g>
</g>
<g>
</g>
<g>
</g>
<g>
</g>
<g>
</g>
<g>
</g>
<g>
</g>
</svg>
