<?xml version="1.0" encoding="UTF-8" standalone="no" ?>
<!DOCTYPE svg PUBLIC "-//W3C//DTD SVG 1.1//EN" "http://www.w3.org/Graphics/SVG/1.1/DTD/svg11.dtd">
<svg xmlns="http://www.w3.org/2000/svg" xmlns:xlink="http://www.w3.org/1999/xlink" version="1.1" width="309" height="92" viewBox="0 0 309 92" xml:space="preserve">
<desc>Created with Fabric.js 3.6.3</desc>
<defs>
</defs>
<g transform="matrix(0.57 0 0 0.57 153.86 46.14)"  >
<g style=""   >
		<g transform="matrix(1 0 0 1 -216.38 22.29)" id="Camada_1"  >
<path style="stroke: none; stroke-width: 1; stroke-dasharray: none; stroke-linecap: butt; stroke-dashoffset: 0; stroke-linejoin: miter; stroke-miterlimit: 4; fill: rgb(0,21,96); fill-rule: nonzero; opacity: 1;"  transform=" translate(-185.63, -117.79)" d="M 193.06 59.73 c 29.92 0 44.88 16.8 44.88 50.41 v 64.02 h -32.75 l -1.06 -8.51 c -10.07 6.8 -21.55 10.21 -34.45 10.21 c -11.06 0 -19.89 -2.84 -26.48 -8.51 c -6.59 -5.67 -9.89 -13.4 -9.89 -23.18 c 0 -11.34 5.39 -20.21 16.16 -26.59 c 10.77 -6.38 25.66 -9.57 44.66 -9.57 c 4.11 0 6.66 0.07 7.66 0.21 c -0.14 -7.09 -1.56 -12.16 -4.25 -15.21 c -2.69 -3.05 -7.02 -4.57 -12.97 -4.57 c -10.07 0 -22.12 2.48 -36.16 7.44 l -11.06 -24.25 C 156.91 63.7 175.48 59.73 193.06 59.73 z M 167.75 142.46 c 0 2.41 1.1 4.36 3.3 5.85 c 2.2 1.49 5.28 2.23 9.25 2.23 c 8.08 0 15.24 -2.05 21.48 -6.17 v -13.82 h -5.96 C 177.11 130.55 167.75 134.52 167.75 142.46 z" stroke-linecap="round" />
</g>
		<g transform="matrix(1 0 0 1 -114.84 0.49)" id="Camada_1"  >
<path style="stroke: none; stroke-width: 1; stroke-dasharray: none; stroke-linecap: butt; stroke-dashoffset: 0; stroke-linejoin: miter; stroke-miterlimit: 4; fill: rgb(0,21,96); fill-rule: nonzero; opacity: 1;"  transform=" translate(-287.16, -95.99)" d="M 296 175.85 c -5.96 0 -11.2 -0.82 -15.74 -2.45 c -4.54 -1.63 -8.05 -3.69 -10.53 -6.17 c -2.48 -2.48 -4.54 -5.39 -6.17 -8.72 c -1.63 -3.33 -2.69 -6.41 -3.19 -9.25 c -0.5 -2.83 -0.75 -5.74 -0.75 -8.72 V 16.13 h 36.16 V 134.8 c 0 6.24 3.12 9.36 9.36 9.36 c 1.28 0 3.75 -0.14 7.44 -0.43 l 2.13 30.41 C 309.32 175.28 303.08 175.85 296 175.85 z" stroke-linecap="round" />
</g>
		<g transform="matrix(1 0 0 1 -44.86 0.49)" id="Camada_1"  >
<path style="stroke: none; stroke-width: 1; stroke-dasharray: none; stroke-linecap: butt; stroke-dashoffset: 0; stroke-linejoin: miter; stroke-miterlimit: 4; fill: rgb(0,21,96); fill-rule: nonzero; opacity: 1;"  transform=" translate(-357.13, -95.99)" d="M 365.97 175.85 c -5.96 0 -11.2 -0.82 -15.74 -2.45 c -4.54 -1.63 -8.05 -3.69 -10.53 -6.17 c -2.48 -2.48 -4.54 -5.39 -6.17 -8.72 c -1.63 -3.33 -2.69 -6.41 -3.19 -9.25 c -0.5 -2.83 -0.75 -5.74 -0.75 -8.72 V 16.13 h 36.16 V 134.8 c 0 6.24 3.12 9.36 9.36 9.36 c 1.28 0 3.75 -0.14 7.44 -0.43 l 2.13 30.41 C 379.29 175.28 373.06 175.85 365.97 175.85 z" stroke-linecap="round" />
</g>
		<g transform="matrix(1 0 0 1 44.99 22.29)" id="Camada_1"  >
<path style="stroke: none; stroke-width: 1; stroke-dasharray: none; stroke-linecap: butt; stroke-dashoffset: 0; stroke-linejoin: miter; stroke-miterlimit: 4; fill: rgb(0,21,96); fill-rule: nonzero; opacity: 1;"  transform=" translate(-446.99, -117.79)" d="M 503.14 122.47 v 9.14 h -75.5 c 3.83 11.2 12.34 16.8 25.52 16.8 c 10.07 0 21.34 -2.69 33.82 -8.08 l 11.06 24.46 c -16.02 7.38 -32.33 11.06 -48.92 11.06 c -17.3 0 -31.34 -5.39 -42.11 -16.16 c -10.78 -10.77 -16.16 -24.74 -16.16 -41.9 c 0 -17.15 5.39 -31.12 16.16 -41.9 c 10.77 -10.77 24.74 -16.16 41.9 -16.16 c 17.44 0 30.84 5.74 40.2 17.23 C 498.46 88.44 503.14 103.61 503.14 122.47 z M 448.91 86.74 c -6.1 0 -11.1 1.95 -14.99 5.85 c -3.9 3.9 -6.42 9.32 -7.55 16.27 h 43.81 C 468.19 94.11 461.1 86.74 448.91 86.74 z" stroke-linecap="round" />
</g>
		<g transform="matrix(1 0 0 1 163.36 22.28)" id="Camada_1"  >
<path style="stroke: none; stroke-width: 1; stroke-dasharray: none; stroke-linecap: butt; stroke-dashoffset: 0; stroke-linejoin: miter; stroke-miterlimit: 4; fill: rgb(0,21,96); fill-rule: nonzero; opacity: 1;"  transform=" translate(-565.36, -117.78)" d="M 568.22 175.85 c -18.43 0 -36.09 -4.61 -52.96 -13.82 l 11.48 -25.52 c 16.87 7.8 31.33 11.7 43.39 11.7 c 7.51 0 11.27 -1.98 11.27 -5.96 c 0 -2.13 -1.35 -4 -4.04 -5.64 c -2.69 -1.63 -7.94 -3.51 -15.74 -5.64 c -12.9 -3.97 -22.83 -8.15 -29.77 -12.55 c -8.79 -5.96 -13.19 -14.32 -13.19 -25.1 c 0 -9.07 3.9 -16.87 11.7 -23.39 c 7.8 -6.81 19.14 -10.21 34.03 -10.21 c 15.03 0 31.97 3.97 50.83 11.91 l -11.27 25.52 c -17.87 -6.66 -31.41 -10 -40.62 -10 c -7.09 0 -10.63 1.99 -10.63 5.96 c 0 1.84 1.28 3.55 3.83 5.1 c 2.55 1.56 7.51 3.4 14.89 5.53 c 8.08 2.55 13.82 4.54 17.23 5.95 c 4.25 1.7 8.72 4.04 13.4 7.02 c 8.93 5.53 13.4 13.75 13.4 24.67 c 0 9.36 -4.18 17.44 -12.55 24.25 C 594.52 172.45 582.97 175.85 568.22 175.85 z" stroke-linecap="round" />
</g>
		<g transform="matrix(1 0 0 1 248.52 58.77)" id="Camada_1"  >
<path style="stroke: none; stroke-width: 1; stroke-dasharray: none; stroke-linecap: butt; stroke-dashoffset: 0; stroke-linejoin: miter; stroke-miterlimit: 4; fill: rgb(0,21,96); fill-rule: nonzero; opacity: 1;"  transform=" translate(-650.52, -154.27)" d="M 672.01 154.16 c 0 6.52 -1.99 11.77 -5.96 15.74 c -3.97 3.97 -9.14 5.96 -15.53 5.96 c -6.38 0 -11.56 -1.98 -15.53 -5.96 c -3.97 -3.97 -5.96 -9.22 -5.96 -15.74 c 0 -6.52 1.98 -11.7 5.96 -15.53 c 3.97 -3.97 9.15 -5.95 15.53 -5.95 c 6.38 0 11.55 1.99 15.53 5.95 C 670.02 142.46 672.01 147.64 672.01 154.16 z" stroke-linecap="round" />
</g>
</g>
</g>
</svg>